<?xml version="1.0" standalone="no"?><!DOCTYPE svg PUBLIC "-//W3C//DTD SVG 1.1//EN" "http://www.w3.org/Graphics/SVG/1.1/DTD/svg11.dtd"><svg class="icon" width="200px" height="200.00px" viewBox="0 0 1024 1024" version="1.1" xmlns="http://www.w3.org/2000/svg"><path fill="#8E8C8F" d="M938.895 927.599H85.104c-46.923 0-85.098-38.176-85.098-85.1V661.931a30.018 30.018 0 0 1 18.515-27.725C68.104 613.639 100.143 565.67 100.143 512S68.104 410.361 18.521 389.794A30.017 30.017 0 0 1 0.006 362.069V181.501c0-46.924 38.175-85.1 85.098-85.1h853.791c46.924 0 85.099 38.175 85.099 85.1v180.568a30.016 30.016 0 0 1-18.515 27.725C955.896 410.361 923.857 458.33 923.857 512s32.038 101.64 81.621 122.206a30.017 30.017 0 0 1 18.515 27.725v180.568c0 46.924-38.175 85.1-85.098 85.1zM60.037 680.796v161.703c0 13.822 11.245 25.068 25.066 25.068h853.791c13.822 0 25.068-11.246 25.068-25.068V680.796c-26.715-14.578-49.597-35.295-66.911-60.733-21.735-31.935-33.226-69.302-33.226-108.063 0-38.76 11.49-76.127 33.226-108.063 17.314-25.438 40.197-46.155 66.911-60.734V181.501c0-13.823-11.246-25.069-25.068-25.069H85.104c-13.822 0-25.066 11.246-25.066 25.069v161.703c26.713 14.579 49.597 35.295 66.911 60.734 21.736 31.935 33.226 69.303 33.226 108.063 0 38.761-11.489 76.128-33.226 108.063-17.315 25.437-40.199 46.154-66.912 60.732z"  /><path fill="#8E8C8F" d="M468.921 682.808v-70.601h-84.265c-18.219 0-27.329-8.326-27.329-25.052 1.496-13.664 10.605-21.99 27.329-25.052h84.265v-38.716h-84.265c-18.219 0-27.329-8.326-27.329-25.052 1.496-13.665 10.605-21.991 27.329-25.052h47.826L359.605 370.8c-7.614-6.049-10.638-14.412-9.11-25.051 1.496-25.8 15.942-40.211 43.271-43.271 13.665 1.529 25.052 7.615 34.162 18.22L512.192 441.4l84.264-120.703c7.581-10.604 18.969-16.69 34.162-18.22 25.802 3.061 40.212 17.471 43.271 43.271 0 10.639-3.059 19.002-9.108 25.051l-72.878 102.484h47.826c15.16 3.061 24.271 11.387 27.329 25.052-1.529 16.726-10.638 25.052-27.329 25.052h-84.266v38.716h84.266c15.16 3.062 24.271 11.388 27.329 25.052-1.529 16.726-10.638 25.052-27.329 25.052h-84.266v70.601c-1.527 25.833-15.941 38.716-43.271 38.716-28.857-0.001-43.271-12.883-43.271-38.716z"  /></svg>