<?xml version="1.0" standalone="no"?><!DOCTYPE svg PUBLIC "-//W3C//DTD SVG 1.1//EN" "http://www.w3.org/Graphics/SVG/1.1/DTD/svg11.dtd"><svg t="1549004329789" class="icon" style="" viewBox="0 0 1024 1024" version="1.1" xmlns="http://www.w3.org/2000/svg" p-id="2599" xmlns:xlink="http://www.w3.org/1999/xlink" width="200" height="200"><defs><style type="text/css"></style></defs><path d="M749.714286 859.428571V365.714286a18.285714 18.285714 0 1 1 36.571428 0v512a18.285714 18.285714 0 0 1-18.285714 18.285714H256a18.285714 18.285714 0 0 1-18.285714-18.285714V365.714286a18.285714 18.285714 0 0 1 36.571428 0v493.714285h475.428572zM146.285714 274.285714a18.285714 18.285714 0 1 1 0-36.571428h731.428572a18.285714 18.285714 0 1 1 0 36.571428H146.285714z m274.285715 164.571429a18.285714 18.285714 0 1 1 36.571428 0v292.571428a18.285714 18.285714 0 1 1-36.571428 0v-292.571428z m146.285714 0a18.285714 18.285714 0 1 1 36.571428 0v292.571428a18.285714 18.285714 0 1 1-36.571428 0v-292.571428z m-182.857143-274.285714V256a18.285714 18.285714 0 1 1-36.571429 0V146.285714a18.285714 18.285714 0 0 1 18.285715-18.285714h292.571428a18.285714 18.285714 0 0 1 18.285715 18.285714v109.714286a18.285714 18.285714 0 1 1-36.571429 0V164.571429h-256z" p-id="2600" fill="#959497"></path></svg>