<?xml version="1.0" standalone="no"?><!DOCTYPE svg PUBLIC "-//W3C//DTD SVG 1.1//EN" "http://www.w3.org/Graphics/SVG/1.1/DTD/svg11.dtd"><svg class="icon" width="200px" height="200.00px" viewBox="0 0 1024 1024" version="1.1" xmlns="http://www.w3.org/2000/svg"><path fill="#f2a642" d="M875.974693 526.620908C870.457728 488.638638 842.279137 458.035639 800.596067 444.776464 778.528207 437.744889 741.106935 428.389047 710.663675 421.115379 766.491736 341.080139 777.467979 258.363972 756.706011 211.006932 743.764467 181.5038 719.276782 164.571429 689.528735 164.571429 632.040711 164.571429 617.02844 212.79322 606.061147 247.99693 604.440969 253.219304 602.766087 258.605065 600.925109 264.092445 590.738567 294.423466 539.680536 349.139851 465.144324 390.784358 409.347092 421.944265 355.918965 464.558129 353.661255 466.347405 346.213802 472.317968 341.882383 481.354013 341.882383 490.892169L341.882383 793.532897C341.882383 803.634935 346.730986 813.11531 354.916423 819.026097 399.812997 851.420365 558.17286 877.712563 637.743664 877.712563 679.124379 877.712563 695.414693 871.198043 704.070568 866.30244 739.786127 846.069473 787.300451 731.558786 822.037336 635.205862 862.065417 604.820048 881.646811 565.705035 875.974693 526.620908L875.974693 526.620908ZM237.714286 457.142857C197.317424 457.142857 164.571429 477.469822 164.571429 502.560726L164.571429 777.432181C164.571429 802.519539 197.317424 822.857143 237.714286 822.857143 278.111148 822.857143 310.857143 802.519539 310.857143 777.432181L310.857143 502.560726C310.857143 477.469822 278.111148 457.142857 237.714286 457.142857L237.714286 457.142857Z" /></svg>