<?xml version="1.0" standalone="no"?><!DOCTYPE svg PUBLIC "-//W3C//DTD SVG 1.1//EN" "http://www.w3.org/Graphics/SVG/1.1/DTD/svg11.dtd"><svg class="icon" width="200px" height="200.00px" viewBox="0 0 1024 1024" version="1.1" xmlns="http://www.w3.org/2000/svg"><path fill="#8E8C8F" d="M512 960.032C264.96 960.032 64 759.04 64 512S264.96 64 512 64 960.032 264.96 960.032 512 759.04 960.032 512 960.032zM512 128C300.256 128 128 300.256 128 512s172.256 384.032 384 384.032S896.032 723.744 896.032 512 723.744 128 512 128zM416 737.76c-4.672 0-9.344-0.992-13.696-3.072C391.136 729.376 384 718.112 384 705.76L384 384l-64 0c-17.664 0-32-14.336-32-32s14.336-32 32-32l96 0c17.664 0 32 14.336 32 32l0 286.08L679.68 448 672 448c-17.696 0-32-14.336-32-32s14.304-32 32-32l97.12 0c13.536 0 25.568 8.512 30.112 21.216 4.576 12.736 0.64 26.944-9.824 35.52l-353.152 289.76C430.464 735.296 423.264 737.76 416 737.76z" /></svg>