<?xml version="1.0" standalone="no"?><!DOCTYPE svg PUBLIC "-//W3C//DTD SVG 1.1//EN" "http://www.w3.org/Graphics/SVG/1.1/DTD/svg11.dtd"><svg t="1538979102821" class="icon" style="" viewBox="0 0 1024 1024" version="1.1" xmlns="http://www.w3.org/2000/svg" p-id="8076" xmlns:xlink="http://www.w3.org/1999/xlink" width="200" height="200"><defs><style type="text/css"></style></defs><path d="M671.462828 167.247118c-32.806173 0-66.028832 7.509021-96.076172 21.715581-23.285333 11.009751-44.808532 26.093285-63.154365 44.165896-18.34481-18.072611-39.868009-33.157167-63.154365-44.166919-30.046317-14.205537-63.267952-21.714558-96.075149-21.714558-57.969273 0-111.751177 21.913079-151.439084 61.70434-39.673581 39.775912-61.522192 93.670379-61.522192 151.754263 0 141.074016 119.81176 250.671133 301.168224 416.567487l7.324826 6.699586 63.696718 57.263192 12.478196-11.217483 51.102888-45.937239 7.426133-6.792707c181.367721-165.902494 301.18562-275.504728 301.18562-416.582837 0-58.083883-21.848611-111.977327-61.522192-151.754263C783.214005 189.161221 729.432101 167.247118 671.462828 167.247118L671.462828 167.247118z" p-id="8077" fill="#eb473d"></path></svg>