<?xml version="1.0" standalone="no"?><!DOCTYPE svg PUBLIC "-//W3C//DTD SVG 1.1//EN" "http://www.w3.org/Graphics/SVG/1.1/DTD/svg11.dtd"><svg class="icon" width="200px" height="200.00px" viewBox="0 0 1024 1024" version="1.1" xmlns="http://www.w3.org/2000/svg"><path fill="#8E8C8F" d="M957.632453 577.491597c0-71.607898-97.41261-127.699404-216.773092-127.699404-7.941879 0-17.496489 0.284479-25.198915 0.769526L715.660446 241.61692c1.110287-5.29254 0.694825-10.66899 0.694825-16.159028 0-70.563102-90.568738-125.836987-209.928197-125.836987-119.364575 0-212.851782 55.277978-212.851782 125.836987 0 5.490038 0.7552 10.866489 1.861394 16.159028l0 57.293891c-6.736425-0.363274-13.563924-0.590448-20.499893-0.590448-119.359458 0-211.113185 55.269791-211.113185 125.823684 0 5.507434-0.983397 10.879792 0.127913 16.173354l0 292.651246 1.451048 0c3.745301 66.703191 94.29255 118.410853 209.534224 118.410853 115.1506 0 211.475436-51.619658 215.356836-118.410853l1.446955 0 0-12.190647c6.814196 0.397043 7.671727 1.031493 14.686491 1.031493 7.963369 0 15.743566-0.336668 23.440875-0.839111l0 3.444449 1.552356 0-0.450255 7.972579c0 68.788689 93.562932 128.696104 213.005278 128.696104 119.455649 0 213.014488-54.692646 213.014488-124.653021l-0.231267-7.936763 1.337461 0L958.096011 593.895195C959.228811 588.519768 957.632453 583.078849 957.632453 577.491597L957.632453 577.491597zM743.976352 490.38982c105.010659 0 178.182168 45.902446 178.182168 87.101777 0 41.191144-73.176626 87.098707-178.182168 87.098707-105.001449 0-178.182168-45.906539-178.182168-87.098707C565.798277 536.292266 638.974903 490.38982 743.976352 490.38982L743.976352 490.38982zM924.05573 648.885624l0 22.032806c-10.038634 44.115754-89.851401 80.996732-180.083471 80.996732-90.162486 0-169.96502-36.854373-180.071192-80.926124l0-22.103414c38.371936 34.184567 104.040564 56.30026 180.071192 56.30026C820.021306 705.186907 885.683794 683.071214 924.05573 648.885624L924.05573 648.885624zM506.428098 471.223295c-6.927783 0-7.928576-0.301875-14.686491-0.734734l0-30.17116c0.685615-3.273557 1.153266-6.587022 1.476631-9.93528 6.250354 0.375553 6.756891 0.602727 13.208836 0.602727 75.624375 0 137.65208-22.321378 174.534082-56.515155l0 16.950044C671.061692 434.866249 595.322707 471.223295 506.428098 471.223295L506.428098 471.223295zM683.876556 454.325439c-3.081175 0.494257-6.188956 0.935302-9.208732 1.499144 3.121084-2.461051 6.402827-4.847401 9.208732-7.447623L683.876556 454.325439 683.876556 454.325439zM506.428098 139.632177c103.467513 0 172.654268 45.230134 172.654268 85.825714 0 40.587394-69.186755 85.817528-172.658362 85.817528-103.470583 0-175.572738-45.230134-175.572738-85.817528C330.851267 184.862311 402.953422 139.632177 506.428098 139.632177L506.428098 139.632177zM328.97964 295.80303c3.212158 2.868327 6.883781 5.520737 10.480702 8.203846-3.421936-0.629333-6.984065-1.070378-10.480702-1.595334L328.97964 295.80303 328.97964 295.80303zM274.938839 338.318332c103.471606 0 178.48916 45.243437 178.48916 85.825714 0 40.60172-75.017554 85.818551-178.48916 85.818551-103.470583 0-175.572738-45.216831-175.572738-85.818551C99.365078 383.561769 171.467233 338.318332 274.938839 338.318332L274.938839 338.318332zM97.489358 494.502487c37.821397 33.682124 102.518908 55.474452 177.448458 55.474452 74.925457 0 142.543484-21.792329 180.350554-55.474452l0 21.710464c-9.887184 43.462884-91.451852 79.80765-180.350554 79.80765-88.854701 0-167.486572-36.322254-177.448458-79.751369L97.489358 494.502487 97.489358 494.502487zM97.489358 573.20906c36.876885 34.158984 101.811804 56.476269 177.448458 56.476269 75.624375 0 143.482879-22.317285 180.350554-56.515155l0 16.937764c-9.887184 43.463907-91.451852 79.80765-180.350554 79.80765-88.854701 0-167.486572-36.303834-177.448458-79.733972L97.489358 573.20906 97.489358 573.20906zM97.489358 647.111211c36.876885 34.162054 101.811804 56.476269 177.448458 56.476269 75.624375 0 143.482879-22.314215 180.350554-56.515155l0 16.937764c-9.887184 43.468001-91.451852 79.80765-180.350554 79.80765-88.854701 0-167.486572-36.300764-177.448458-79.747275L97.489358 647.111211 97.489358 647.111211zM274.938839 817.71068c-92.233658 0-173.256996-39.145555-178.081884-84.742033l0.633427 0 0-11.963473c36.876885 34.145681 101.811804 56.467059 177.448458 56.467059 75.624375 0 143.482879-22.321378 180.350554-56.501852l0 11.998265 0.621147 0C451.088722 778.566148 367.164311 817.71068 274.938839 817.71068L274.938839 817.71068zM488.47726 396.406309c-7.023974-19.10922-26.967188-36.43891-46.584991-51.04763 20.324908 3.707438 41.877783 5.913687 64.535829 5.913687 74.92955 0 136.712685-21.788236 174.534082-55.470359l0 21.710464c-9.896394 43.462884-85.639472 79.80765-174.534082 79.80765C498.390028 397.321144 496.288157 396.966057 488.47726 396.406309L488.47726 396.406309zM529.868973 687.174672c-7.709589 0.572028-15.512299 0.970094-23.440875 0.970094-6.927783 0-7.928576-0.288572-14.686491-0.733711l0-35.452443c6.739495 0.432859 7.726985 0.721431 14.686491 0.721431 7.985882 0 15.752776-0.398066 23.440875-0.961908L529.868973 687.174672 529.868973 687.174672zM529.868973 618.023732c-7.709589 0.582261-15.512299 0.988514-23.440875 0.988514-6.927783 0-7.928576-0.301875-14.686491-0.730641l0-40.229237c6.739495 0.432859 7.726985 0.730641 14.686491 0.730641 7.399527 0 14.603603-0.349971 21.727861-0.826831 0.188288 4.690836 0.773619 9.29776 1.713015 13.829983L529.868973 618.023732 529.868973 618.023732 529.868973 618.023732zM534.883173 543.801287c-9.323343 0.835018-18.808368 1.315972-28.455075 1.315972-6.927783 0-7.928576-0.288572-14.686491-0.734734l0-40.21184c6.739495 0.419556 7.726985 0.717338 14.686491 0.717338 22.833031 0 44.522006-2.255367 64.942081-6.0416C554.481534 511.964184 541.972639 527.166421 534.883173 543.801287L534.883173 543.801287zM743.976352 826.912249c-95.962585 0-180.220594-41.724287-181.172269-89.49836l0.300852-8.92016 0.50756 0c37.361933 34.817993 103.406115 57.589626 180.363857 57.589626 76.927043 0 142.953829-22.762423 180.329065-57.589626l0.573051 0 0.279363 8.094352C925.157831 784.701892 840.498686 826.912249 743.976352 826.912249L743.976352 826.912249zM258.071683 450.357058c-1.560542-1.87572-2.7793-5.555529-3.654226-11.036357l-25.298176 0c-0.192382 12.04943 5.053086 20.581758 15.735379 25.582655 6.057973 2.785439 15.245216 4.65502 27.553543 5.612834l0 12.989849 9.086959 0 0-13.120832c9.685593-0.515746 18.051121-2.303462 25.105794-5.346775 11.561313-4.955872 17.34811-12.920264 17.34811-23.886013 0-8.309246-4.200672-14.751982-12.602016-19.314904-5.096065-2.735297-15.048741-5.892197-29.851888-9.467629l0-24.862247c6.175653 0.306992 10.428513 2.001587 12.775978 5.097088 1.354857 1.787716 2.286066 4.606925 2.77009 8.479115l24.65554 0c-0.375553-10.432607-5.821589-17.990746-16.325827-22.644743-5.77861-2.916423-13.746072-4.65502-23.876804-5.218862l0-8.81169-9.083889 0 0 8.680706c-6.372128 0.348947-11.228739 0.887206-14.523785 1.633197-5.446036 1.175779-10.376325 3.313465-14.805194 6.390547-3.435239 2.399653-6.109138 5.241374-8.016581 8.549723-1.905396 3.313465-2.858094 6.984065-2.858094 11.028171 0 6.136767 2.446725 11.381212 7.347339 15.734356 4.904707 4.340865 13.33061 7.736195 25.263383 10.17985l7.591909 1.564635 0 27.860535C265.287015 455.16455 260.510222 453.272457 258.071683 450.357058L258.071683 450.357058zM281.495162 430.324816c5.187139 1.345648 8.867972 2.648316 11.027148 3.906983 3.64604 2.180666 5.463432 5.135974 5.463432 8.878205 0 4.916986-1.937119 8.369621-5.840008 10.376325-2.215458 1.127683-5.773494 1.914606-10.651594 2.347464L281.494139 430.324816 281.495162 430.324816zM262.280542 407.282007c-3.929496-2.13257-5.901407-5.021364-5.901407-8.680706 0-3.348258 1.315972-5.987365 3.942799-7.928576 2.613524-1.930979 6.647397-2.936889 12.089339-3.03308l0 22.907733C267.844258 409.549653 264.466324 408.457786 262.280542 407.282007L262.280542 407.282007zM724.320687 596.85562c-1.569752-1.870604-2.785439-5.538133-3.663436-11.018961l-25.298176 0c-0.183172 12.05557 5.056156 20.578688 15.734356 25.583678 6.062066 2.7793 15.250332 4.649903 27.558659 5.615904l0 12.973476 9.091052 0 0-13.108552c9.6815-0.524956 18.052145-2.315742 25.110911-5.349845 11.556197-4.966105 17.3389-12.929474 17.3389-23.89113 0-8.312316-4.204765-14.738679-12.602016-19.310811-5.097088-2.749624-15.044648-5.900384-29.848819-9.462512l0-24.865317c6.167466 0.300852 10.420327 2.006703 12.771885 5.091972 1.364067 1.782599 2.281973 4.611018 2.780323 8.484232l24.642237 0c-0.37146-10.441816-5.813403-17.986653-16.316617-22.63758-5.786797-2.914376-13.741979-4.668323-23.877827-5.232165l0-8.807596-9.091052 0 0 8.671497c-6.368034 0.36225-11.210319 0.905626-14.523785 1.635243-5.442966 1.175779-10.372232 3.308349-14.805194 6.40385-3.435239 2.38635-6.101975 5.244444-8.011464 8.540514-1.901303 3.313465-2.854001 6.993275-2.854001 11.036357 0 6.123464 2.448772 11.373025 7.355525 15.722076 4.89959 4.353145 13.31833 7.748475 25.251104 10.178827l7.587815 1.574868 0 27.859511C731.527832 601.672322 726.755132 599.769996 724.320687 596.85562L724.320687 596.85562zM747.744165 576.828494c5.184069 1.354857 8.859785 2.653433 11.024078 3.906983 3.64604 2.185782 5.459339 5.148253 5.459339 8.890484 0 4.904707-1.937119 8.370645-5.826705 10.372232-2.229784 1.12666-5.782703 1.910513-10.656711 2.342348L747.744165 576.828494 747.744165 576.828494 747.744165 576.828494zM728.529545 553.784662c-3.937682-2.12029-5.895267-5.009084-5.895267-8.667404 0-3.348258 1.302669-5.997598 3.928472-7.928576 2.631944-1.941212 6.64842-2.950192 12.090363-3.03308l0 22.89443C734.089168 556.057425 730.71942 554.965557 728.529545 553.784662L728.529545 553.784662zM488.080218 253.667374c-1.565658-1.870604-2.785439-5.555529-3.659343-11.031241l-25.298176 0c-0.188288 12.054547 5.065366 20.581758 15.747659 25.577538 6.048763 2.788509 15.231913 4.659113 27.545356 5.616928l0 12.985756 9.086959 0 0-13.121855c9.682523-0.523933 18.052145-2.298346 25.106818-5.344728 11.556197-4.965082 17.3389-12.916171 17.3389-23.890107 0-8.300037-4.195555-14.742772-12.596899-19.314904-5.097088-2.732228-15.044648-5.89629-29.848819-9.458419l0-24.866341c6.167466 0.314155 10.437723 2.001587 12.775978 5.097088 1.364067 1.774413 2.276856 4.611018 2.780323 8.484232l24.638143 0c-0.375553-10.446933-5.813403-17.994839-16.316617-22.646789-5.786797-2.914376-13.741979-4.65502-23.877827-5.213745l0-8.820899-9.086959 0 0 8.6848c-6.372128 0.345877-11.215436 0.887206-14.527878 1.635243-5.428639 1.171686-10.368138 3.291976-14.804171 6.385431-3.435239 2.391467-6.101975 5.250584-8.011464 8.55484-1.905396 3.300162-2.859118 6.984065-2.859118 11.023054 0 6.141884 2.452865 11.382235 7.356548 15.72617 4.89959 4.349051 13.317307 7.749498 25.254174 10.17985l7.591909 1.572822 0 27.859511C495.287363 258.46668 490.51057 256.579703 488.080218 253.667374L488.080218 253.667374zM511.49858 233.627968c5.184069 1.354857 8.863878 2.661619 11.028171 3.920286 3.64604 2.167363 5.463432 5.135974 5.463432 8.876158 0 4.91801-1.941212 8.370645-5.826705 10.377348-2.234901 1.12359-5.786797 1.905396-10.660804 2.346441L511.49858 233.627968 511.49858 233.627968 511.49858 233.627968zM492.288053 210.597439c-3.937682-2.136663-5.895267-5.02648-5.895267-8.680706 0-3.348258 1.306762-6.000668 3.933589-7.933693 2.626827-1.927909 6.64842-2.946099 12.090363-3.03308l0 22.912849C497.848699 212.851782 494.477928 211.777311 492.288053 210.597439L492.288053 210.597439zM492.288053 210.597439" /></svg>