<?xml version="1.0" standalone="no"?><!DOCTYPE svg PUBLIC "-//W3C//DTD SVG 1.1//EN" "http://www.w3.org/Graphics/SVG/1.1/DTD/svg11.dtd"><svg class="icon" width="200px" height="200.00px" viewBox="0 0 1024 1024" version="1.1" xmlns="http://www.w3.org/2000/svg"><path fill="#8E8C8F" d="M511.609097 961.619254M879.688243 173.830047 773.5806 173.830047c-11.534707 0-20.8734 9.341762-20.8734 20.872377 0 11.526521 9.337669 20.868283 20.8734 20.868283l106.107643 0 0 701.789531L143.330406 917.360238 143.330406 215.570707l107.822704 0c11.534707 0 20.872377-9.341762 20.872377-20.868283 0-11.529591-9.336646-20.872377-20.872377-20.872377L143.330406 173.830047c-23.011086 0-41.74066 18.718317-41.74066 41.739637l0 701.789531c0 23.013133 18.72855 41.741683 41.74066 41.741683l736.357837 0c23.011086 0 41.739637-18.72855 41.739637-41.741683L921.42788 215.570707C921.42788 192.549388 902.69933 173.830047 879.688243 173.830047L879.688243 173.830047zM879.688243 173.830047M345.846796 216.876446l331.323011 0c11.539824 0 20.8734-9.341762 20.8734-20.8734 0-11.525498-9.333576-20.86726-20.8734-20.86726l-63.996546 0c0.308015-2.812045 0.735757-5.585205 0.735757-8.480138 0-56.45785-45.940308-102.398158-102.398158-102.398158S409.112702 110.198821 409.112702 166.656671c0 2.89391 0.428765 5.668093 0.730641 8.480138l-63.996546 0c-11.534707 0-20.872377 9.341762-20.872377 20.86726C324.974419 207.534683 334.306972 216.876446 345.846796 216.876446L345.846796 216.876446zM450.852338 166.656671c0-33.446763 27.208689-60.658522 60.658522-60.658522 33.446763 0 60.653405 27.211758 60.653405 60.658522 0 2.933819-0.672312 5.668093-1.12052 8.480138L451.973882 175.136809C451.525674 172.324764 450.852338 169.59049 450.852338 166.656671L450.852338 166.656671zM450.852338 166.656671M301.69932 421.020916l419.618986 0c11.539824 0 20.8734-9.346879 20.8734-20.8734 0-11.525498-9.332553-20.86726-20.8734-20.86726L301.69932 379.280256c-11.534707 0-20.872377 9.341762-20.872377 20.86726C280.826943 411.674037 290.163589 421.020916 301.69932 421.020916L301.69932 421.020916zM301.69932 421.020916M301.69932 600.378863l419.618986 0c11.539824 0 20.8734-9.331529 20.8734-20.86726 0-11.534707-9.332553-20.8734-20.8734-20.8734L301.69932 558.638203c-11.534707 0-20.872377 9.337669-20.872377 20.8734C280.826943 591.047334 290.163589 600.378863 301.69932 600.378863L301.69932 600.378863zM301.69932 600.378863M301.69932 779.74295l419.618986 0c11.539824 0 20.8734-9.336646 20.8734-20.8734 0-11.534707-9.332553-20.86726-20.8734-20.86726L301.69932 738.00229c-11.534707 0-20.872377 9.331529-20.872377 20.86726C280.826943 770.405281 290.163589 779.74295 301.69932 779.74295L301.69932 779.74295zM301.69932 779.74295" /></svg>