<?xml version="1.0" standalone="no"?><!DOCTYPE svg PUBLIC "-//W3C//DTD SVG 1.1//EN" "http://www.w3.org/Graphics/SVG/1.1/DTD/svg11.dtd"><svg class="icon" width="200px" height="200.00px" viewBox="0 0 1024 1024" version="1.1" xmlns="http://www.w3.org/2000/svg"><path fill="#8E8C8F" d="M800 499.2c0 0-19.2 57.6 0 64 25.6 6.4 89.6-19.2 89.6-19.2L889.6 832c0 0-224 96-243.2 89.6-19.2-6.4-243.2-102.4-268.8-89.6-19.2 12.8-243.2 64-243.2 64L134.4 614.4c0 0 102.4-25.6 108.8-44.8 12.8-25.6 6.4-76.8-64-44.8C102.4 556.8 64 588.8 64 588.8l0 358.4c0 0 19.2 57.6 64 44.8 44.8-12.8 243.2-89.6 243.2-89.6s236.8 83.2 268.8 89.6c32 6.4 313.6-83.2 313.6-108.8 0-96 6.4-384 0-403.2C953.6 460.8 844.8 486.4 800 499.2M441.6 230.4c0-38.4 32-70.4 64-70.4 38.4 0 64 32 64 70.4 0 38.4-32 70.4-64 70.4C473.6 300.8 441.6 268.8 441.6 230.4zM684.8 217.6c-6.4-38.4-32-70.4-64-89.6 0 0-6.4-6.4-6.4-6.4-6.4 0-12.8-6.4-19.2-6.4-6.4 0-6.4-6.4-12.8-6.4-6.4 0-12.8 0-12.8-6.4-6.4 0-12.8-6.4-19.2-6.4C537.6 89.6 524.8 89.6 512 89.6c0 0 0 0 0 0 0 0 0 0 0 0-12.8 0-25.6 0-38.4 0-25.6 6.4-44.8 12.8-64 25.6 0 0 0 0 0 0C403.2 121.6 396.8 128 390.4 134.4c0 0-6.4 0-6.4 6.4C384 140.8 377.6 147.2 371.2 147.2 371.2 153.6 364.8 153.6 364.8 160c0 0-6.4 6.4-6.4 6.4C352 172.8 352 179.2 345.6 185.6c0 0 0 6.4 0 6.4 0 6.4-6.4 12.8-6.4 19.2 0 6.4-6.4 19.2-6.4 32C332.8 396.8 512 608 512 608s172.8-211.2 172.8-364.8C684.8 236.8 684.8 224 684.8 217.6zM512 697.6c0 0-243.2-243.2-243.2-454.4C262.4 32 512 32 512 32s243.2 0 243.2 211.2C755.2 454.4 512 697.6 512 697.6z" /></svg>