<?xml version="1.0" standalone="no"?><!DOCTYPE svg PUBLIC "-//W3C//DTD SVG 1.1//EN" "http://www.w3.org/Graphics/SVG/1.1/DTD/svg11.dtd"><svg class="icon" width="200px" height="200.00px" viewBox="0 0 1024 1024" version="1.1" xmlns="http://www.w3.org/2000/svg"><path d="M621 354.4c-43.6 10.4-82.1 41.4-105.6 101.3-14.1 36-15 108.5-30.7 205.6-17.6 108.8-94.3 199.4-191 252.1-45.2 24.6-81.6 35.3-100.5 31.1-32.4-7.1 252 87.9 472.8-160.4 2.7-3.1 5.3-6.3 7.6-9.6C764.7 642.8 827.9 434 820.2 404.1c-7.1-41.4-150.7-61.2-199.2-49.7z" fill="#E72410" /><path d="M746.4 67.7c-13.3-2.2-25.8 6.9-27.6 20.3-8.2 59.7-30.3 209.2-47 216.6-19.5 8.7 98.3-71.8 101.5-203.9 0.3-16.2-10.9-30.3-26.9-33z" fill="#009E42" /><path d="M529.9 275.5L430 321.6l106.8-20.9-59.2 76.3s77.9-57.8 90.2-49.3c12.3 8.6 6 145 6 145s37.7-83.3 58.6-86.6c20.9-3.3 59.4 69.2 54.9 105.7s20.5-109.4 31.8-118.2 49.7 126.8 49.7 126.8 34.2-92.4 4.9-129.5 50.3 82.9 98.9 86.1c0 0-30.4-41.4-51.9-93.4-19.8-47.8-60.6-84.1-110.8-96.6-18-4.5-39.2-8.2-64.5-10.9-39.5-4.1-79.4 2.8-115.5 19.4z" fill="#00A74A" /></svg>