<?xml version="1.0" standalone="no"?><!DOCTYPE svg PUBLIC "-//W3C//DTD SVG 1.1//EN" "http://www.w3.org/Graphics/SVG/1.1/DTD/svg11.dtd"><svg t="1539054376235" class="icon" style="" viewBox="0 0 1024 1024" version="1.1" xmlns="http://www.w3.org/2000/svg" p-id="2711" xmlns:xlink="http://www.w3.org/1999/xlink" width="200" height="200"><defs><style type="text/css"></style></defs><path d="M182.126502 138.879024c46.905286-32.870642 141.640927-38.169321 151.308101-34.422997 5.495154 2.171456 47.920406 86.114287 62.818721 125.570927 22.607904 59.802014 20.923542 125.548414 20.923542 125.548414s8.510838-2.526543-20.923542 20.923542c-35.378765 28.129664-58.652841 13.653975-62.818721 41.826618-4.124947 28.173666 29.833469 119.896694 104.71083 188.30062C512.935814 675.054633 580.186474 709.742666 626.602619 711.252043c23.586185 0.775666 20.393469-56.568367 41.84913-83.677794 5.674233-7.136537 86.003769-3.812839 167.486572 41.828664 52.579519 29.41289 78.469166 69.621661 83.789335 83.699284 10.328229 27.506471-77.758991 133.926222-133.350101 155.737994-48.767703 19.10615-121.471562 14.098089-201.667046-9.266038-104.315834-30.41266-367.026164-182.294836-444.166055-434.743452-66.762543-190.204993-28.636201-254.333546 0-289.730731C156.415934 155.526169 169.272753 147.923004 182.126502 138.879024L182.126502 138.879024z" p-id="2712" fill="#8e8c8f"></path></svg>